<svg
    xmlns="http://www.w3.org/2000/svg"
    fill="currentColor"
    stroke="currentColor"
    strokeWidth="0.2"
    className="h-8 w-5"
  >
    <path
      fill="currentColor"
      d="M19.834 26.4c-3.115-7.665-4.354-12.01-6.795-15.33-.177-.247-.284-.53-.284-.777 0-1.2-.247-5.263-3.362-5.616-2.088-.212-3.397 1.095-3.468 2.19 0 0-.637.141-.744 1.271-.035.53 0 1.06.106 1.52 0 .07.106.07.142.035.318-.318.955-.636 1.061-.495.213.247.284.636.284 1.342-.284.46-.87 1.61-.446 4.437.345 2.251 2.87 5.594 4.304 7.017a7.785 7.785 0 0 1-3.258-.738 7.81 7.81 0 0 1-4.06-4.437l-1.947-5.353a7.848 7.848 0 0 1 .255-6.02 7.801 7.801 0 0 1 4.42-4.074 7.763 7.763 0 0 1 5.996.256 7.81 7.81 0 0 1 4.06 4.437l1.947 5.353a7.918 7.918 0 0 1 .052 5.253.443.443 0 1 0 .838.289 8.81 8.81 0 0 0-.058-5.847L16.93 5.76A8.69 8.69 0 0 0 12.412.82 8.641 8.641 0 0 0 5.737.536a8.683 8.683 0 0 0-4.92 4.536 8.736 8.736 0 0 0-.284 6.7l1.948 5.353A8.69 8.69 0 0 0 7 22.064a8.67 8.67 0 0 0 4.443.787c.072.133.13.273.18.405 1.91 4.38 4.566 7.524 6.193 8.69.284.176.637-.107.532-.424-1.062-2.967-2.16-5.299-3.221-8.407.035-.035 1.486 3.356 4.353 3.78.248.035.46-.248.354-.495ZM7.942 7.891a.483.483 0 0 1-.496-.494c0-.283.213-.495.496-.495.283 0 .495.212.495.495a.483.483 0 0 1-.495.494Z"
    />
  </svg>