<?xml version="1.0" encoding="UTF-8"?>
<svg id="Layer_1" data-name="Layer 1" xmlns="http://www.w3.org/2000/svg" viewBox="0 0 1609.7 250">
  <defs>
    <style>
      .cls-1 {
        fill: #fff;
        stroke-width: 0px;
      }
    </style>
  </defs>
  <g id="LangSmith-logo">
    <g id="LangSmith-logo-2" data-name="LangSmith-logo">
      <polygon class="cls-1" points="590.37 49.27 590.37 200.87 694.81 200.87 694.81 177.98 614.08 177.98 614.08 49.27 590.37 49.27"/>
      <path class="cls-1" d="M750.47,85.24c-22.76,0-39.78,10.67-46.69,29.27-.44,1.19-1.77,4.78-1.77,4.78l19.51,12.62,2.65-6.91c4.52-11.78,12.88-17.27,26.3-17.27s21.1,6.51,20.96,19.33c0,.52-.04,2.09-.04,2.09,0,0-17.76,2.88-25.08,4.43-31.23,6.6-44.31,18.52-44.31,38.02,0,10.39,5.77,21.64,16.3,27.95,6.32,3.78,14.57,5.21,23.68,5.21,5.99,0,11.81-.89,17.2-2.53,12.25-4.07,15.67-12.07,15.67-12.07v10.46h20.29v-74.78c0-25.42-16.7-40.6-44.67-40.6ZM771.51,165.04c0,7.86-8.56,18.93-28.5,18.93-5.63,0-9.62-1.49-12.28-3.71-3.56-2.97-4.73-7.24-4.24-11.01.21-1.64,1.2-5.17,4.87-8.23,3.75-3.13,10.38-5.37,20.62-7.6,8.42-1.83,19.54-3.85,19.54-3.85v15.48Z"/>
      <path class="cls-1" d="M870.16,85.24c-2.82,0-5.57.2-8.24.57-18.17,2.73-23.49,11.96-23.49,11.96l.02-9.23h-22.74v112.1h23.71v-62.18c0-21.13,15.41-30.75,29.73-30.75,15.48,0,23,8.32,23,25.45v67.48h23.71v-70.74c0-27.56-17.51-44.67-45.69-44.67Z"/>
      <path class="cls-1" d="M1014.8,88.46v11.55s-5.81-14.77-32.24-14.77c-32.84,0-53.24,22.66-53.24,59.15,0,20.59,6.58,36.8,18.19,47.04,9.03,7.96,21.09,12.04,35.45,12.32,9.99.19,16.46-2.53,20.5-5.1,7.76-4.94,10.64-9.63,10.64-9.63,0,0-.33,3.67-.93,8.64-.43,3.6-1.24,6.13-1.24,6.13h0c-3.61,12.85-14.17,20.28-29.57,20.28s-24.73-5.07-26.58-15.06l-23.05,6.88c3.98,19.2,22,30.66,48.2,30.66,17.81,0,31.77-4.84,41.5-14.4,9.81-9.64,14.79-23.53,14.79-41.29v-102.41h-22.42ZM1013.31,145.4c0,22.44-10.96,35.84-29.32,35.84-19.67,0-30.95-13.44-30.95-36.86s11.28-36.66,30.95-36.66c17.92,0,29.15,13.34,29.32,34.82v2.86Z"/>
      <path class="cls-1" d="M1176.2,177.73c3.2-5.81,4.82-12.66,4.82-20.37s-1.37-13.63-4.08-18.42c-2.71-4.81-6.21-8.74-10.39-11.69-4.21-2.97-8.66-5.31-13.2-6.97-4.56-1.66-8.75-3-12.44-3.97l-27.07-7.55c-3.42-.91-6.84-2.06-10.18-3.43-3.37-1.38-6.24-3.29-8.51-5.68-2.32-2.43-3.5-5.59-3.5-9.42,0-4.02,1.37-7.59,4.06-10.61,2.67-2.99,6.23-5.31,10.59-6.9,4.33-1.59,9.1-2.36,14.18-2.29,5.22.14,10.21,1.21,14.82,3.19,4.63,1.98,8.61,4.9,11.83,8.68,3.13,3.68,5.3,8.16,6.46,13.33l26.17-4.55c-2.23-8.96-6.03-16.73-11.31-23.09-5.38-6.48-12.16-11.5-20.16-14.91-8.01-3.42-17.26-5.19-27.5-5.26-10.08-.07-19.41,1.54-27.66,4.79-8.23,3.24-14.86,8.18-19.71,14.68-4.84,6.49-7.3,14.63-7.3,24.19,0,6.54,1.09,12.09,3.25,16.51,2.16,4.43,4.98,8.11,8.37,10.96,3.41,2.86,7.07,5.12,10.89,6.74,3.85,1.63,7.48,2.95,10.8,3.91l39.02,11.54c2.82.85,5.34,1.87,7.49,3.03,2.17,1.17,3.97,2.49,5.36,3.92,1.4,1.44,2.48,3.1,3.2,4.94.72,1.84,1.08,3.86,1.08,6,0,4.79-1.54,8.9-4.59,12.19-3.01,3.26-6.98,5.78-11.79,7.47-4.79,1.69-9.96,2.55-15.38,2.55-9.15,0-17.35-2.5-24.36-7.43-6.91-4.86-11.58-11.8-13.88-20.62l-25.28,3.84c1.56,9.52,5.15,17.87,10.67,24.81,5.62,7.07,12.9,12.58,21.62,16.37,8.74,3.8,18.72,5.73,29.64,5.73,7.68,0,15.13-.98,22.16-2.92,7.01-1.93,13.33-4.87,18.78-8.74,5.44-3.85,9.82-8.76,13.01-14.57Z"/>
      <path class="cls-1" d="M1300.43,109.91c3.28-1.87,7.04-2.82,11.16-2.82,6.69,0,12.08,2.24,16,6.67,3.91,4.41,5.9,10.58,5.9,18.37v67.69h24.28v-74.03c0-11.94-3.33-21.71-9.89-29.03-6.55-7.3-16.11-11.01-28.42-11.01-7.44,0-14.27,1.66-20.32,4.93-5.67,3.07-10.32,7.35-13.8,12.71l-.46.71-.4-.74c-2.75-5.08-6.65-9.23-11.6-12.33-5.59-3.5-12.65-5.28-20.97-5.28-7.57,0-14.5,1.68-20.58,4.98-4.67,2.53-8.66,5.84-11.86,9.82l-.89,1.11v-13.1h-21.34v111.26h24.49v-68.62c0-7.09,2-12.94,5.95-17.38,3.96-4.46,9.29-6.72,15.85-6.72s12.18,2.26,16.11,6.72c3.91,4.44,5.89,10.71,5.89,18.62v67.38h24.17v-68.62c0-4.98.97-9.34,2.89-12.97,1.93-3.64,4.57-6.43,7.85-8.31Z"/>
      <path class="cls-1" d="M1434.95,171.34c.14,5,1.49,9.98,4.03,14.78,2.87,5.25,7.13,9.15,12.66,11.58,5.58,2.44,11.99,3.77,19.06,3.94,6.97.17,14.19-.42,21.46-1.75v-20.19c-6.84.98-13.04,1.24-18.42.76-5.67-.5-9.85-2.95-12.45-7.27-1.37-2.22-2.11-5.13-2.22-8.63-.1-3.43-.16-7.45-.16-11.97v-46.23h33.25v-18.82h-33.25v-38.09h-24.17v38.09h-20.56v18.82h20.56v47.7c0,6.42.07,12.24.21,17.29Z"/>
      <path class="cls-1" d="M1564.01,85.07c-2.6,0-5.13.17-7.59.49-17.88,2.79-23.14,11.9-23.14,11.9v-2.67h-.01s0-45.69,0-45.69h-23.71v151.39h23.71v-62.18c0-21.27,15.41-30.95,29.73-30.95,15.48,0,23,8.32,23,25.45v67.68h23.71v-70.94c0-27.01-17.94-44.47-45.69-44.47Z"/>
      <rect class="cls-1" x="1374.72" y="88.53" width="23.59" height="112.2"/>
      <circle class="cls-1" cx="1386.52" cy="64.81" r="15.37"/>
    </g>
    <path id="LangSmith-symbol" class="cls-1" d="M288.95,191.81c-1.37,2.28-5.49,2.43-9,.32-1.8-1.08-3.19-2.57-3.91-4.19-.66-1.47-.67-2.86-.04-3.91.72-1.2,2.21-1.81,3.97-1.81,1.58,0,3.38.49,5.04,1.49,3.51,2.11,5.32,5.82,3.95,8.1ZM492.07,125c0,68.92-56.08,125-125,125H125.17C56.25,250,.17,193.93.17,125S56.25,0,125.17,0h241.9c68.93,0,125,56.08,125,125ZM241.07,187.69c1.97-2.39-7.13-9.12-8.99-11.59-3.78-4.1-3.8-10-6.35-14.79-6.24-14.46-13.41-28.81-23.44-41.05-10.6-13.39-23.68-24.47-35.17-37.04-8.53-8.77-10.81-21.26-18.34-30.69-10.38-15.33-43.2-19.51-48.01,2.14.02.68-.19,1.11-.78,1.54-2.66,1.93-5.03,4.14-7.02,6.81-4.87,6.78-5.62,18.28.46,24.37.2-3.21.31-6.24,2.85-8.54,4.7,4.04,11.8,5.46,17.25,2.45,12.04,17.19,9.04,40.97,18.6,59.49,2.64,4.38,5.3,8.85,8.69,12.69,2.75,4.28,12.25,9.33,12.81,13.29.1,6.8-.7,14.23,3.76,19.92,2.1,4.26-3.06,8.54-7.22,8.01-5.4.74-11.99-3.63-16.72-.94-1.67,1.81-4.94-.19-6.38,2.32-.5,1.3-3.2,3.13-1.59,4.38,1.79-1.36,3.45-2.78,5.86-1.97-.36,1.96,1.19,2.24,2.42,2.81-.04,1.33-.82,2.69.2,3.82,1.19-1.2,1.9-2.9,3.79-3.4,6.28,8.37,12.67-8.47,26.26-.89-2.76-.13-5.21.21-7.07,2.48-.46.51-.85,1.11-.04,1.77,7.33-4.73,7.29,1.62,12.05-.33,3.66-1.91,7.3-4.3,11.65-3.62-4.23,1.22-4.4,4.62-6.88,7.49-.42.44-.62.94-.13,1.67,8.78-.74,9.5-3.66,16.59-7.24,5.29-3.23,10.56,4.6,15.14.14,1.01-.97,2.39-.64,3.64-.77-1.6-8.53-19.19,1.56-18.91-9.88,5.66-3.85,4.36-11.22,4.74-17.17,6.51,3.61,13.75,5.71,20.13,9.16,3.22,5.2,8.27,12.07,15,11.62.18-.52.34-.98.53-1.51,2.04.35,4.66,1.7,5.78-.88,3.05,3.19,7.53,3.03,11.52,2.21,2.95-2.4-5.55-5.82-6.69-8.29ZM332.32,147.38l-13.38-18.06c-11.68,13.36-19.48,19.87-19.62,19.99-.07.07-7.52,7.32-14.31,13.54-6.66,6.1-11.92,10.93-14.6,16.21-.74,1.46-2.35,6.84-.09,12.22,1.74,4.16,5.29,7.12,10.56,8.8,1.58.5,3.09.72,4.53.72,9.49,0,15.72-9.52,15.76-9.6.08-.11,8.15-11.64,17.98-26.2,3.27-4.84,7.01-9.96,13.17-17.63ZM395.23,188.97c0-2.66-.97-5.23-2.73-7.22l-1.66-1.88c-10.03-11.37-35.78-40.56-45.8-51.9-12.58-14.24-26.65-32.39-27.82-33.91l-1.69-3.5v-6.16c0-2.26-.45-4.47-1.32-6.55l-3.58-8.5c-.05-.12-.07-.26-.05-.39l.14-1.18c.02-.19.11-.36.26-.49,2.79-2.46,13.17-10.44,29.24-9.77,2.1.09,2.47-1.06,2.53-1.55.29-2.36-5.1-5.14-10.12-6.17-6.9-1.41-25.24-5.15-39.91,4.48l-.11.08c-9.48,7.92-17.1,13.97-17.18,14.03l-.17.17c-.11.13-2.79,3.34-2.14,7.43.42,2.66-.96,3.61-1.04,3.66s-1.96,1.23-3.9-.1c-2.35-1.76-6.43,1.26-7.26,1.92l-6.16,5.3-.12.12c-.11.13-2.75,3.22.78,8.18,3.05,4.29,4.13,5.72,6.78,9.02,2.69,3.34,7.54,7.57,7.8,7.79.12.1,3.08,2.34,7.16-.78,3.35-2.57,6.04-4.89,6.04-4.89.22-.18,2.16-1.78,2.25-4.14.03-.68,0-1.27,0-1.81-.05-1.66-.06-2.15,1.19-2.95h0c.6,0,2.44.67,4.02,1.47.17.1,4.12,2.32,7.71,2.16,2.26.3,4.76,2.87,5.62,3.92.08.08,7.72,8.1,18.48,22.17,2.05,2.67,9.58,12.7,11.64,15.5,3.44,4.68,8.65,11.76,14.25,19.39,9.7,13.21,20.58,28.02,25.52,34.68,1.64,2.21,4.03,3.71,6.73,4.23l1.83.35c.7.13,1.4.2,2.1.2,3.24,0,6.31-1.42,8.34-3.94l.11-.14c1.46-1.85,2.26-4.22,2.26-6.66v-1.67ZM403.84,70.36l-2.13-2.13c-.62-.62-1.49-.99-2.37-.92-.88.04-1.71.44-2.28,1.12l-13.4,15.85c-.38.45-.92.73-1.5.79l-4.77.48c-.61.06-1.22-.13-1.69-.52l-7.62-6.45c-.49-.42-.78-1.02-.8-1.66l-.11-3.82c-.02-.55.17-1.09.52-1.51l13.03-15.7c.98-1.18.97-2.89-.02-4.07l-1.31-1.55c-.86-1.01-2.28-1.38-3.52-.91-3.08,1.17-10.84,4.2-16.45,7.24-7.93,4.28-13.44,11.07-14.39,17.72-.7,4.87-.41,12.9-.17,17.25.09,1.71-.29,3.42-1.12,4.95-1.02,1.9-2.82,4.94-5.56,8.6-1.4,1.93-2.28,2.64-3.49,4.07l14.74,17.33c3.55-4.14,6.66-7.28,9.37-10.31,4.95-5.51,6.49-5.56,10.61-5.7,2.54-.09,6.02-.2,11.53-1.58,15.04-3.76,19.8-20.04,20-20.76l3.74-14.79h0c.27-1.07-.05-2.23-.83-3.01ZM172.56,173.6c-1.62,6.32-2.15,17.09-10.37,17.4-.68,3.65,2.53,5.02,5.44,3.85,2.89-1.33,4.26,1.05,5.23,3.42,4.46.65,11.06-1.49,11.31-6.77-6.66-3.84-8.72-11.14-11.62-17.9Z"/>
  </g>
</svg>